<?xml version="1.0" standalone="no"?>
<!DOCTYPE svg PUBLIC "-//W3C//DTD SVG 20010904//EN"
 "http://www.w3.org/TR/2001/REC-SVG-20010904/DTD/svg10.dtd">
<svg version="1.0" xmlns="http://www.w3.org/2000/svg"
 width="140.000000pt" height="140.000000pt" viewBox="0 0 140.000000 140.000000"
 preserveAspectRatio="xMidYMid meet">
<metadata>
Created by potrace 1.11, written by Peter Selinger 2001-2013
</metadata>
<g transform="translate(0.000000,140.000000) scale(0.100000,-0.100000)"
fill="#000000" stroke="none">
<path d="M595 1393 c-177 -36 -325 -120 -433 -247 -45 -52 -126 -207 -137
-261 -31 -145 -30 -257 5 -379 44 -157 153 -303 290 -390 101 -64 141 -80 265
-106 43 -9 212 -6 259 4 171 39 328 144 430 291 42 60 90 158 100 205 3 14 9
41 14 61 12 49 7 233 -8 294 -20 81 -94 226 -147 286 -83 95 -205 179 -303
208 -25 7 -56 18 -70 23 -25 10 -229 19 -265 11z"/>
</g>
</svg>
